<svg xmlns="http://www.w3.org/2000/svg" version="1.1" xmlns:xlink="http://www.w3.org/1999/xlink" xmlns:svgjs="http://svgjs.com/svgjs" width="512" height="512"><svg width="512" height="512" viewBox="0 0 512 512" fill="none" xmlns="http://www.w3.org/2000/svg">
<g clip-path="url(#clip0_0_4)">
<rect width="512" height="512" rx="10" fill="black"></rect>
<path d="M147.275 336V240.092C147.275 237.921 147.275 235.749 147.275 233.578C147.35 231.407 147.725 222.086 148.398 205.614C143.083 225.754 139.152 239.792 136.606 247.729L108.081 336H84.4971L55.9717 247.729L43.9551 205.614C44.8535 222.984 45.3027 234.477 45.3027 240.092V336H15.8789V177.763H60.2393L88.54 266.259L91.0107 274.794L96.4014 296.02L103.477 270.639L132.563 177.763H176.699V336H147.275ZM80.791 162.265V139.018H112.349V162.265H80.791ZM316.182 336L279.458 275.917H240.601V336H207.471V177.763H286.533C305.4 177.763 319.963 181.843 330.22 190.004C340.477 198.09 345.605 209.732 345.605 224.931C345.605 236.011 342.461 245.595 336.172 253.681C329.883 261.692 321.385 266.97 310.679 269.516L353.467 336H316.182ZM312.251 226.278C312.251 211.08 302.518 203.48 283.052 203.48H240.601V250.199H283.95C293.234 250.199 300.272 248.103 305.063 243.91C309.855 239.717 312.251 233.84 312.251 226.278ZM237.568 145.756H306.299V164.623H237.568V145.756ZM259.243 377.104V353.856H290.801V377.104H259.243ZM483.179 336L426.353 263.339L406.812 278.275V336H373.682V177.763H406.812V249.525L478.125 177.763H516.758L449.15 244.696L522.261 336H483.179ZM406.924 354.979H475.654V373.847H406.924V354.979Z" fill="white"></path>
</g>
<defs>
<clipPath id="SvgjsClipPath1000">
<rect width="512" height="512" fill="white"></rect>
</clipPath>
</defs>
</svg><style>@media (prefers-color-scheme: light) { :root { filter: none; } }
@media (prefers-color-scheme: dark) { :root { filter: none; } }
</style></svg>