<?xml version="1.0" standalone="no"?>
<!DOCTYPE svg PUBLIC "-//W3C//DTD SVG 20010904//EN"
 "http://www.w3.org/TR/2001/REC-SVG-20010904/DTD/svg10.dtd">
<svg version="1.0" xmlns="http://www.w3.org/2000/svg"
 width="700.000000pt" height="700.000000pt" viewBox="0 0 700.000000 700.000000"
 preserveAspectRatio="xMidYMid meet">
<metadata>
Created by potrace 1.14, written by Peter Selinger 2001-2017
</metadata>
<g transform="translate(0.000000,700.000000) scale(0.100000,-0.100000)"
fill="#000000" stroke="none">
<path d="M71 6982 c-19 -10 -43 -34 -53 -53 -17 -32 -18 -160 -18 -3429 0
-3269 1 -3397 18 -3429 10 -19 34 -43 53 -53 32 -17 160 -18 3429 -18 3269 0
3397 1 3429 18 19 10 43 34 53 53 17 32 18 89 18 1186 l0 1153 -198 0 -197 0
-379 485 c-209 267 -384 490 -390 495 -7 5 -58 -27 -144 -92 l-132 -101 0
-394 0 -393 -225 0 -225 0 0 1080 0 1080 225 0 225 0 0 -492 0 -493 491 492
491 493 229 0 229 0 0 1163 c0 1107 -1 1164 -18 1196 -10 19 -34 43 -53 53
-32 17 -160 18 -3429 18 -3269 0 -3397 -1 -3429 -18z m1459 -2042 l0 -160
-210 0 -210 0 0 160 0 160 210 0 210 0 0 -160z m2658 -62 l3 -128 -471 0 -470
0 0 130 0 130 468 -2 467 -3 3 -127z m-3167 -933 c109 -341 220 -702 246 -802
26 -101 50 -179 54 -175 3 4 23 68 43 142 20 74 130 433 244 798 l206 662 298
0 298 0 0 -1080 0 -1080 -196 0 -195 0 3 884 c2 486 2 884 2 883 -1 -1 -29
-104 -63 -229 -58 -215 -109 -380 -374 -1195 l-111 -343 -160 0 -161 0 -197
613 c-108 336 -232 734 -275 884 -42 150 -79 271 -81 269 -2 -2 2 -100 7 -217
6 -118 11 -514 11 -881 l0 -668 -200 0 -200 0 0 1080 0 1080 302 -2 301 -3
198 -620z m3159 601 c305 -71 471 -217 526 -462 24 -109 16 -284 -18 -375 -66
-179 -190 -305 -361 -367 -39 -14 -74 -27 -75 -28 -2 -1 127 -205 286 -453
l290 -451 -252 0 -253 0 -250 408 -249 407 -267 3 -267 2 0 -410 0 -410 -225
0 -225 0 0 1081 0 1080 633 -4 c556 -3 641 -6 707 -21z m-210 -2541 l0 -155
-210 0 -210 0 0 155 0 155 210 0 210 0 0 -155z m2530 10 l0 -125 -465 0 -465
0 0 125 0 125 465 0 465 0 0 -125z"/>
<path d="M3290 3900 l0 -320 343 0 c253 0 355 4 392 14 168 45 253 161 243
334 -10 158 -86 241 -254 277 -52 11 -148 15 -396 15 l-328 0 0 -320z"/>
<path d="M6566 4078 l-429 -423 429 -535 429 -535 3 483 c1 266 1 697 0 958
l-3 475 -429 -423z"/>
</g>
</svg>
