<svg width="512" height="268" viewBox="0 0 512 268" fill="none" xmlns="http://www.w3.org/2000/svg">
<g clip-path="url(#clip0_0_2)">
<path d="M153.669 212V106.434C153.669 94.7539 154.006 83.5234 154.68 72.7422C151.011 86.1439 147.717 96.6257 144.797 104.188L103.918 212H88.869L47.4286 104.188L41.1396 85.0957L37.4335 72.7422L37.7704 85.208L38.2196 106.434V212H19.1278V53.7627H47.3163L89.4306 163.484C90.928 167.902 92.3505 172.656 93.6982 177.747C95.1207 182.763 96.0565 186.395 96.5058 188.641C97.1047 185.646 98.3401 181.116 100.212 175.052C102.158 168.912 103.469 165.057 104.142 163.484L145.471 53.7627H172.985V212H153.669ZM86.3983 31.751V12.4346H106.613V31.751H86.3983ZM322.575 212L281.472 146.302H232.17V212H210.72V53.7627H285.178C302.997 53.7627 316.735 57.7682 326.393 65.7793C336.127 73.7155 340.993 84.7962 340.993 99.0215C340.993 110.776 337.549 120.659 330.661 128.67C323.848 136.681 314.414 141.735 302.36 143.831L347.282 212H322.575ZM319.431 99.2461C319.431 90.0371 316.286 83.0368 309.997 78.2451C303.783 73.3786 294.798 70.9453 283.044 70.9453H232.17V129.344H283.942C295.248 129.344 303.97 126.723 310.109 121.482C316.323 116.167 319.431 108.755 319.431 99.2461ZM303.259 36.2432H241.603V21.9805H303.259V36.2432ZM262.492 246.927V227.61H282.707V246.927H262.492ZM482.272 212L419.045 135.633L398.381 151.355V212H376.931V53.7627H398.381V133.05L474.636 53.7627H499.904L432.521 122.493L508.889 212H482.272ZM466.774 248.387H405.119V234.124H466.774V248.387Z" fill="#4A4A4A"/>
</g>
<defs>
<clipPath id="clip0_0_2">
<rect width="512" height="268" fill="white"/>
</clipPath>
</defs>
</svg>
